<?xml version='1.0' encoding='utf-8'?>
<svg xmlns="http://www.w3.org/2000/svg" viewBox="0 0 128 128" width="128" height="128"><defs><linearGradient id="flameGrad" x1="0%" y1="0%" x2="0%" y2="100%"><stop offset="0%" stop-color="#FFE066" /><stop offset="55%" stop-color="#FFA43A" /><stop offset="100%" stop-color="#FF4B4B" /></linearGradient><linearGradient id="innerFlameGrad" x1="0%" y1="0%" x2="0%" y2="100%"><stop offset="0%" stop-color="#FFF3B0" /><stop offset="70%" stop-color="#FFC65C" /><stop offset="100%" stop-color="#FF7A3A" /></linearGradient><linearGradient id="handleGrad" x1="0%" y1="0%" x2="0%" y2="100%"><stop offset="0%" stop-color="#5B4636" /><stop offset="100%" stop-color="#8C6B4F" /></linearGradient><linearGradient id="metalGrad" x1="0%" y1="0%" x2="100%" y2="0%"><stop offset="0%" stop-color="#D8DEE9" /><stop offset="100%" stop-color="#AEB6C1" /></linearGradient></defs><circle cx="64" cy="40" r="34" fill="#FFD166" opacity="0.25" /><path d="M64 8 C52 22, 44 32, 44 46 C44 61, 55 72, 64 78 C73 72, 84 61, 84 46 C84 32, 76 22, 64 8 Z" fill="url(#flameGrad)" /><path d="M64 21 C57 30, 52 36, 52 45 C52 55, 59 62, 64 65 C69 62, 76 55, 76 45 C76 36, 71 30, 64 21 Z" fill="url(#innerFlameGrad)" /><path d="M40 76 C40 70, 88 70, 88 76 L84 88 C84 92, 44 92, 44 88 Z" fill="url(#metalGrad)" /><path d="M56 88 L72 88 L76 120 C76 124, 52 124, 52 120 Z" fill="url(#handleGrad)" /><rect x="54" y="86" width="20" height="4" rx="2" fill="url(#metalGrad)" /><rect x="56" y="102" width="16" height="4" rx="2" fill="url(#metalGrad)" opacity="0.9" /><rect x="58" y="116" width="12" height="4" rx="2" fill="url(#metalGrad)" opacity="0.85" /></svg>